<?xml version="1.0" ?><!DOCTYPE svg  PUBLIC '-//W3C//DTD SVG 1.1//EN'  'http://www.w3.org/Graphics/SVG/1.1/DTD/svg11.dtd'><svg height="100%" style="fill-rule:evenodd;clip-rule:evenodd;stroke-linejoin:round;stroke-miterlimit:2;" version="1.1" viewBox="0 0 128 129" width="100%" xml:space="preserve" xmlns="http://www.w3.org/2000/svg" xmlns:serif="http://www.serif.com/" xmlns:xlink="http://www.w3.org/1999/xlink"><g transform="matrix(1,0,0,1,0,-339)"><g id="shovel" transform="matrix(1,0,0,1,0,339.167)"><rect height="128" style="fill:none;" width="128" x="0" y="0"/><g><g transform="matrix(1,0,0,1,-5714.49,-9146.38)"><path d="M5819.04,9174.61L5814.12,9169.7L5750.89,9232.93C5750.89,9232.93 5749.83,9235.07 5748.71,9237.34C5748.33,9238.1 5748.48,9239.03 5749.08,9239.64C5749.69,9240.24 5750.61,9240.4 5751.38,9240.02C5753.66,9238.9 5755.8,9237.85 5755.8,9237.85L5819.04,9174.61Z" style="fill:rgb(247,208,112);"/></g><g transform="matrix(1,0,0,1,-5714.49,-9146.38)"><path d="M5816.62,9172.2L5753.39,9235.44C5753.39,9235.44 5751.24,9236.49 5748.97,9237.61C5748.84,9237.67 5748.7,9237.72 5748.56,9237.76C5748.4,9238.42 5748.59,9239.14 5749.08,9239.64C5749.69,9240.24 5750.61,9240.4 5751.38,9240.02C5753.66,9238.9 5755.8,9237.85 5755.8,9237.85L5819.04,9174.61L5816.62,9172.2Z" style="fill:rgb(185,156,84);"/></g><g transform="matrix(1,0,0,1,-5714.49,-9146.38)"><path d="M5771.86,9221.79L5766.94,9216.88L5750.89,9232.93C5750.89,9232.93 5749.83,9235.07 5748.71,9237.34C5748.33,9238.1 5748.48,9239.03 5749.08,9239.64C5749.69,9240.24 5750.61,9240.4 5751.38,9240.02C5753.66,9238.9 5755.8,9237.85 5755.8,9237.85L5771.86,9221.79Z" style="fill:rgb(102,102,102);"/></g><g transform="matrix(1,0,0,1,-5714.49,-9146.38)"><path d="M5766.86,9216.96L5769.15,9219.25L5753.1,9235.31C5753.1,9235.31 5750.95,9236.36 5748.68,9237.48C5748.66,9237.49 5748.65,9237.5 5748.64,9237.5C5748.35,9238.23 5748.52,9239.07 5749.08,9239.64C5749.69,9240.24 5750.61,9240.4 5751.38,9240.02C5753.66,9238.9 5755.8,9237.85 5755.8,9237.85L5771.86,9221.79L5766.94,9216.88L5766.86,9216.96Z" style="fill:rgb(76,76,76);"/></g><g transform="matrix(1,0,0,1,-5714.49,-9146.38)"><path d="M5838.59,9166.97C5839.52,9167.9 5840.03,9169.16 5840.02,9170.47C5840.01,9171.77 5839.48,9173.03 5838.54,9173.94C5836.1,9176.32 5833.29,9179.04 5833.29,9179.04C5827.39,9181.77 5813.91,9174.96 5813.91,9174.96C5813.91,9174.96 5807.11,9161.48 5809.84,9155.59C5809.84,9155.59 5812.48,9152.78 5814.8,9150.31C5815.7,9149.35 5816.96,9148.79 5818.29,9148.77C5819.61,9148.75 5820.89,9149.27 5821.82,9150.2C5826.34,9154.73 5834.09,9162.48 5838.59,9166.97ZM5832.25,9168.64L5828.3,9172.47C5825.56,9173.59 5818.89,9169.91 5818.89,9169.91C5818.89,9169.91 5815.22,9163.25 5816.34,9160.51L5820.09,9156.48L5832.25,9168.64Z" style="fill:rgb(13,121,242);"/></g><g transform="matrix(1,0,0,1,-5714.49,-9146.38)"><path d="M5821.82,9150.2C5826.34,9154.73 5834.09,9162.48 5838.59,9166.97C5839.52,9167.9 5840.03,9169.16 5840.02,9170.47C5840.01,9171.77 5839.48,9173.03 5838.54,9173.94C5836.1,9176.32 5833.29,9179.04 5833.29,9179.04C5827.39,9181.77 5813.91,9174.96 5813.91,9174.96C5813.91,9174.96 5813.56,9174.26 5813.04,9173.1C5816.95,9174.85 5826.01,9178.42 5830.56,9176.31C5830.56,9176.31 5833.37,9173.59 5835.81,9171.21C5836.75,9170.3 5837.28,9169.05 5837.29,9167.74C5837.3,9166.43 5836.79,9165.17 5835.86,9164.24L5821.82,9150.2ZM5820.09,9156.48L5816.34,9160.51C5815.59,9162.34 5816.98,9165.92 5817.99,9168.09C5816.9,9167.59 5816.17,9167.19 5816.17,9167.19C5816.17,9167.19 5812.49,9160.52 5813.61,9157.78L5817.37,9153.75L5820.09,9156.48Z" style="fill:rgb(10,91,181);"/></g><g transform="matrix(1,0,0,1,-5714.49,-9146.38)"><path d="M5774.9,9239.72C5776.13,9240.95 5776.81,9242.61 5776.81,9244.35C5776.8,9246.09 5776.1,9247.76 5774.86,9248.98C5767.72,9256.01 5754.91,9268.63 5754.91,9268.63C5745.58,9274.6 5732.53,9271.25 5725.92,9268.89C5723.19,9267.91 5721.04,9265.76 5720.05,9263.02C5717.69,9256.42 5714.35,9243.36 5720.32,9234.03C5720.32,9234.03 5732.78,9221.17 5739.76,9213.95C5740.98,9212.7 5742.65,9211.98 5744.39,9211.97C5746.14,9211.95 5747.82,9212.64 5749.06,9213.88C5755.8,9220.62 5768.18,9232.99 5774.9,9239.72Z" style="fill:rgb(182,182,182);"/></g><g transform="matrix(1,0,0,1,-5714.49,-9146.38)"><path d="M5774.9,9239.72C5776.13,9240.95 5776.81,9242.61 5776.81,9244.35C5776.8,9246.09 5776.1,9247.76 5774.86,9248.98C5767.72,9256.01 5754.91,9268.63 5754.91,9268.63C5745.58,9274.6 5732.53,9271.25 5725.92,9268.89C5723.53,9268.03 5721.58,9266.27 5720.47,9264.01C5720.79,9264.17 5721.12,9264.31 5721.46,9264.43C5728.06,9266.78 5741.12,9270.13 5750.45,9264.16C5750.45,9264.16 5763.25,9251.55 5770.4,9244.51C5771.64,9243.29 5772.34,9241.62 5772.34,9239.89C5772.35,9238.15 5771.66,9236.48 5770.43,9235.25L5774.9,9239.72Z" style="fill:rgb(200,200,200);"/></g><g transform="matrix(1,0,0,1,-5714.49,-9146.38)"><path d="M5744.56,9211.97C5746.25,9212 5747.86,9212.68 5749.06,9213.88L5774.9,9239.72C5776.13,9240.95 5776.81,9242.61 5776.81,9244.35C5776.8,9246.09 5776.1,9247.76 5774.86,9248.98L5771,9252.78C5771.91,9251.64 5772.42,9250.22 5772.42,9248.74C5772.43,9247 5771.74,9245.33 5770.51,9244.1C5770.51,9244.1 5760.02,9233.61 5752.42,9226.01C5748.25,9221.84 5741.51,9221.81 5737.3,9225.93C5731.7,9231.71 5724.95,9238.67 5724.95,9238.67C5718.98,9248 5722.33,9261.06 5724.69,9267.66C5724.8,9267.96 5724.92,9268.25 5725.05,9268.53C5722.73,9267.43 5720.93,9265.46 5720.05,9263.02C5717.69,9256.42 5714.35,9243.36 5720.32,9234.03L5739.76,9213.95C5740.98,9212.7 5742.65,9211.98 5744.39,9211.97C5744.42,9211.97 5744.45,9211.97 5744.48,9211.97L5744.56,9211.97Z" style="fill:rgb(136,136,136);"/></g></g></g></g></svg>